<svg width="100%" height="100%" viewBox="0 0 258 323" fill="none" xmlns="http://www.w3.org/2000/svg">
    <path d="M78.972 0.77002H0.572021V101.126H78.972V0.77002Z" fill="#EF436E"/>
    <path d="M168.172 0.77002H89.774V101.126H168.172V0.77002Z" fill="#EF436E"/>
    <path d="M257.376 101.126V79.17C257.376 35.872 222.274 0.77002 178.974 0.77002V101.126H257.376Z" fill="#C21D4C"/>
    <path d="M78.972 111.58H0.572021V211.936H78.972V111.58Z" fill="#EF436E"/>
    <path d="M257.376 111.58H178.974V211.936H257.376V111.58Z" fill="#C21D4C"/>
    <path d="M78.972 222.392H0.572021V322.748H78.972V222.392Z" fill="#951832"/>
    <path d="M168.172 222.392H89.774V322.748H168.172V222.392Z" fill="#951832"/>
    <path d="M257.376 244.346V222.392H178.974V322.748C222.274 322.748 257.376 287.646 257.376 244.346Z" fill="#C21D4C"/>
</svg>
