<?xml version="1.0" encoding="UTF-8" standalone="no"?>
<!DOCTYPE svg PUBLIC "-//W3C//DTD SVG 1.1//EN" "http://www.w3.org/Graphics/SVG/1.1/DTD/svg11.dtd">
<svg width="100%" height="100%" viewBox="0 0 1031 655" version="1.1" xmlns="http://www.w3.org/2000/svg" xmlns:xlink="http://www.w3.org/1999/xlink" xml:space="preserve" xmlns:serif="http://www.serif.com/" style="fill-rule:evenodd;clip-rule:evenodd;stroke-linejoin:round;stroke-miterlimit:2;">
    <g transform="matrix(1,0,0,1,-45.9994,-116.044)">
        <g>
            <path d="M934.745,770.143C928.353,770.143 921.925,769.928 915.426,769.405C890.599,767.407 865.432,766.409 840.728,763.557C784.032,757.012 727.31,756.625 670.202,756.625C647.52,756.625 624.838,756.442 602.161,756.442C569.159,756.442 536.171,756.829 503.235,758.73C451.847,761.697 400.383,762.169 348.903,762.169C341.131,762.169 333.348,762.158 325.577,762.144C325.084,762.143 324.595,762.142 324.102,762.142C295.587,762.142 267.183,763.657 238.711,764.727C210.119,765.801 182.315,767.567 153.888,767.567C151.325,767.567 148.756,767.553 146.181,767.522C117.778,767.185 74.53,760.049 54.267,741.86C42.236,731.054 43.867,705.056 55.916,694.636C61.179,690.084 69.664,686.519 76.596,684.349C96.341,678.172 116.434,678.156 137.067,678.028C137.319,678.027 137.57,678.026 137.823,678.026C152.06,678.026 166.864,680.502 180.509,683.939C192.923,687.067 205.607,688.164 218.233,690.111C228.565,691.705 239.619,692.468 250.552,692.468C257.665,692.468 264.728,692.144 271.503,691.517C289.834,689.818 308.297,689.028 326.683,687.689C349.514,686.027 371.857,682.424 394.607,680.492C402.438,679.828 410.145,678.486 417.89,677.359L423.183,714.191L441.087,714.191L441.087,716.334L441.189,716.334L444.337,674.717C451.44,674.211 458.54,673.814 465.647,673.503L471.594,716.334L471.696,716.334L471.696,714.191L489.513,714.191L493.802,672.672C502.204,672.529 510.606,672.465 519.008,672.443C521.443,672.437 523.878,672.435 526.312,672.435C540.699,672.435 555.086,672.527 569.465,672.527C581.162,672.527 592.849,672.497 604.539,672.497C607.814,672.497 611.084,672.499 614.358,672.506C619.515,680.839 627.109,687.574 636.246,691.634L640.311,714.457L653.523,714.298L652.664,695.736C653.887,695.826 655.102,695.87 656.31,695.87C669.48,695.87 681.637,690.613 690.57,681.938L691.695,689.354L704.538,685.792L703.684,674.597C710.541,674.983 717.399,675.439 724.252,675.976C736.603,676.945 748.873,676.358 761.051,678.664C773.279,680.977 785.622,683.089 798.15,683.501C808.869,683.854 819.62,683.97 830.384,683.97C849.525,683.97 868.701,683.602 887.779,683.543C889.69,683.537 892.349,683.527 895.648,683.527C938.353,683.527 1087.13,685.218 1076.45,719.456C1072.35,732.611 1048.51,749.734 1035.14,755.246C1018.24,762.209 999.77,766.328 981.174,767.717C965.501,768.887 950.221,770.143 934.745,770.143Z" style="fill:rgb(194,221,211);fill-rule:nonzero;"/>
            <path d="M361.529,407.223L366.311,416.81L351.393,426.556L341.734,420.918L341.498,411.295L349.982,411.527L349.086,409.729L346.364,408.85L347.292,406.135L361.529,407.223Z" style="fill:rgb(239,191,165);fill-rule:nonzero;"/>
            <path d="M451.595,296.944C449.619,293.977 447.056,291.471 443.891,289.805C442.214,288.921 440.368,288.285 438.473,288.266C436.474,288.245 434.523,288.909 432.739,289.81C409.76,301.412 408.703,338.963 408.503,360.997C408.375,375.085 388.82,382.861 378.452,390.217C373.678,393.604 357.983,401.594 357.925,406.893C357.913,408.016 364.057,419.924 363.833,420.013C377.245,414.776 390.658,409.54 404.071,404.304C413.978,400.436 424.413,398.351 434.242,394.108C437.969,392.5 441.779,390.582 444.129,387.273C445.952,384.708 446.712,381.56 447.434,378.497C451.041,363.2 453.673,348.002 455.494,332.399C456.405,324.598 457.469,316.678 456.182,308.929C455.481,304.707 453.959,300.496 451.595,296.944Z" style="fill:rgb(235,176,68);fill-rule:nonzero;"/>
            <path d="M471.846,287.317C472.046,287.336 472.244,287.354 472.443,287.374C477.61,287.874 482.821,289.706 486.451,293.418C488.293,295.301 489.662,297.592 490.895,299.92C494.192,306.143 496.535,312.703 499.018,319.269C506.242,338.377 511.971,358.051 516.18,378.039C518.206,387.666 530.249,497.281 523.115,496.819C479.513,493.994 435.824,492.515 392.131,492.384C389.226,435.562 386.598,376.842 406.667,323.604C409.787,315.326 413.527,307.108 419.405,300.498C431.959,286.379 454.24,285.677 471.846,287.317Z" style="fill:rgb(235,176,68);fill-rule:nonzero;"/>
            <path d="M441.504,713.907L441.504,721.424L422.229,731.061L412.591,721.424L422.229,711.785L423.473,711.785L423.782,713.907L441.504,713.907Z" style="fill:rgb(26,49,81);fill-rule:nonzero;"/>
            <path d="M488.974,711.785L490.305,711.785L499.942,721.424L490.305,731.061L471.03,721.424L471.03,713.907L488.752,713.907L488.974,711.785Z" style="fill:rgb(26,49,81);fill-rule:nonzero;"/>
            <path d="M401.289,484.533C412.144,481.357 423.902,476.46 435.239,476.561C436.443,476.572 437.649,476.604 438.855,476.633C439.863,476.71 440.892,476.79 441.938,476.874C449.535,477.485 458.07,478.301 466.981,479.383C467.419,479.437 467.855,479.487 468.294,479.542C479.692,482.022 487.093,482.993 491.898,483.247C496.519,484.48 501.025,486.037 505.243,488.079C507.349,489.099 509.3,490.242 511.183,491.445L511.243,503.831L489.513,714.191L471.696,714.191L471.696,716.334L471.594,716.334L452.003,575.232L451.922,574.438L441.189,716.334L441.087,716.334L441.087,714.191L423.183,714.191L400.474,556.182L401.289,484.533Z" style="fill:rgb(26,49,81);fill-rule:nonzero;"/>
            <path d="M437.915,231.817C435.632,236.421 434.684,241.636 434.722,246.792C434.732,248.163 434.72,249.747 433.673,250.611C432.553,251.537 433.672,253.38 432.728,252.27C431.784,251.16 428.574,247.301 428.365,245.849C427.875,242.446 427.705,238.996 427.858,235.562C427.992,232.574 428.431,229.437 430.229,227.07C431.296,225.667 432.761,224.644 434.205,223.649C436.299,222.208 438.459,220.752 440.917,220.152C445.155,219.117 447.858,220.541 444.236,223.773C441.642,226.089 439.48,228.663 437.915,231.817Z" style="fill:rgb(26,49,81);fill-rule:nonzero;"/>
            <path d="M467.461,288.806C461.602,289.673 455.744,290.541 449.886,291.409C448.728,286.285 447.937,281.06 447.522,275.8C442.35,275.174 436.235,273.804 434.205,268.434C433.566,266.742 433.452,264.872 433.346,263.043C432.909,255.479 432.471,247.916 432.033,240.352C431.882,237.736 431.74,235.04 432.498,232.565C433.828,228.223 437.629,225.478 441.4,223.677C451.026,219.084 462.494,218.646 471.863,223.972C474.357,225.39 476.736,227.255 478.264,229.878C480.619,233.922 480.609,239.068 480.519,243.882C480.436,248.325 480.353,252.768 480.27,257.211C480.174,262.321 479.719,268.222 475.967,271.114C473.975,272.65 471.32,273.052 469.635,274.993C466.662,278.416 468.388,284.139 467.461,288.806Z" style="fill:rgb(239,191,165);fill-rule:nonzero;"/>
            <path d="M451.422,267.818C453.723,269.222 456.053,269.12 458.481,268.235C459.729,267.781 460.376,269.913 459.13,270.366C456.199,271.434 453.25,271.49 450.486,269.804C449.335,269.101 450.264,267.111 451.422,267.818ZM432.235,267.517C433.391,272.179 435.86,276.559 439.763,279.007C444.187,281.781 449.559,281.715 454.638,281.57C457.416,281.492 460.193,281.413 462.971,281.334C469.998,281.135 476.935,279.847 480.167,272.141C481.657,268.587 481.982,264.528 481.539,260.633C481.417,259.563 481.227,258.466 480.681,257.565C480.134,256.665 479.15,256.006 478.184,256.195C476.949,256.438 476.271,257.839 475.523,258.939C473.892,261.341 470.869,262.791 468.313,261.686C467.555,261.36 466.888,260.841 466.223,260.316C465.951,260.101 465.679,259.886 465.402,259.682C462.654,257.659 459.373,256.837 456.123,256.578C453.302,256.353 449.124,255.52 447.168,258.055C446.03,259.53 444.891,261.005 443.753,262.479C443.284,263.088 442.804,263.706 442.179,264.112C441.535,264.531 440.778,264.696 440.029,264.749C438.146,264.882 435.985,264.108 435.247,262.197C434.925,261.365 434.919,260.436 434.84,259.539C434.761,258.641 434.578,257.692 434.002,257.046C431.796,254.57 431.402,258.713 431.389,260.12C431.368,262.608 431.637,265.11 432.235,267.517Z" style="fill:rgb(26,49,81);fill-rule:nonzero;"/>
            <path d="M428.254,219.176C427.671,217.368 427.214,215.518 426.888,213.645C428.636,214.167 430.514,214.232 432.292,213.831C432.241,212.743 432.19,211.655 432.139,210.566C432.101,209.661 444.107,208.397 445.081,208.265C454.199,207.021 462.536,205.855 471.069,210.42C478.359,214.318 483.216,220.456 484.722,228.697C486.16,236.57 484.133,247.058 479.958,253.874C479.877,251.762 480.819,246.721 480.228,244.74C479.826,242.746 479.046,240.844 478.013,239.104C475.951,235.63 472.884,232.775 469.409,230.807C463.869,227.667 457.537,226.185 451.26,225.629C445.509,225.119 438.513,224.737 432.95,226.57C430.276,227.452 429.861,228.168 428.078,225.47C427.764,224.994 425.178,219.385 425.402,219.369C426.353,219.305 427.303,219.24 428.254,219.176Z" style="fill:rgb(26,49,81);fill-rule:nonzero;"/>
            <path d="M811.421,400.469C812.43,399.326 812.75,398.898 814.39,398.16C816.03,397.422 817.982,397.169 819.934,395.883C821.351,394.949 820.993,391.543 824.271,392.836C825.482,393.313 827.597,394.832 829.91,395.714C833.284,397.001 838.09,396.891 842.153,395.998C858.119,392.489 874.167,389.277 890.514,387.633C891.445,387.54 892.371,387.476 893.154,386.924C894.558,385.935 894.744,384.325 895.102,382.744C896.762,375.417 898.635,368.238 901.669,361.321C904.376,355.15 907.576,349.273 912.786,344.909C917.995,340.545 924.872,338.358 931.276,340.405C936.072,341.937 940.052,345.281 941.048,350.28C943.519,362.679 932.129,371.954 925.302,380.645C918.842,388.869 913.318,395.844 906.555,403.384C905.72,404.314 904.925,405.185 903.754,405.714C902.584,406.244 901.228,406.274 899.957,406.258C883.582,406.042 867.626,405.411 851.594,408.735C847.189,409.649 843.167,408.718 839.02,410.126C836.374,411.023 834.992,413.647 832.558,414.903C830.124,416.159 827.249,417.435 824.524,417.619C819.149,417.982 815.845,414.033 812.183,410.782C809.257,408.185 807.037,407.437 803.231,408.45C802.784,408.569 802.3,408.857 801.791,408.744C800.313,408.416 799.685,406.685 800.45,405.379C801.216,404.072 802.575,403.685 803.981,403.205C805.388,402.727 806.977,402.329 808.501,402.242C809.154,402.205 809.885,402.232 810.36,401.769C810.835,401.307 810.994,400.952 811.421,400.469Z" style="fill:rgb(229,209,189);fill-rule:nonzero;"/>
            <path d="M925.115,376.127C915.892,372.637 906.222,370.503 897.233,366.278C900.494,358.45 909.923,326.606 911.547,322.793C917.742,308.241 918.94,301.972 927.478,294.287C945.71,277.878 967.36,288.76 966.47,312.049C965.505,337.331 951.958,359.033 937.284,378.587C936.965,379.012 936.531,379.344 935.975,379.552C935.42,379.761 934.568,379.55 933.898,379.285C931.029,378.154 928.027,377.229 925.115,376.127Z" style="fill:rgb(58,186,186);fill-rule:nonzero;"/>
            <path d="M917.59,724.633C914.363,724.741 911.263,724.017 908.094,723.725C906.458,692.307 909.427,659.378 910.715,627.81C918.786,628.241 926.857,628.672 934.928,629.102C929.308,645.974 925.296,663.379 922.949,681.006C922.577,683.8 918.05,724.617 917.59,724.633Z" style="fill:rgb(239,191,165);fill-rule:nonzero;"/>
            <path d="M907.117,717.63C905.124,717.275 903.949,718.162 902.621,719.376C901.849,720.08 901.325,721.078 900.395,721.582C899.465,722.087 898.552,722.185 897.446,722.297C891.624,722.882 878.209,722.639 885.356,732.377C891.846,741.221 909.081,737.7 919.037,735.298C919.692,735.14 920.384,735.042 920.864,734.535C921.344,734.028 921.667,733.306 921.871,732.559C923.007,728.397 924.561,723.201 919.444,721.457C917.262,720.714 915.252,722.159 912.942,721.357C911.049,720.702 909.109,717.985 907.117,717.63Z" style="fill:rgb(20,85,102);fill-rule:nonzero;"/>
            <path d="M892.618,646.76C909.078,646.44 925.537,646.121 941.997,645.803C955.312,582.417 967.037,518.698 977.159,454.726C977.944,449.766 978.708,444.607 977.279,439.794C974.575,430.688 964.824,425.493 955.488,423.749C940.979,421.038 914.322,424.813 906.882,439.897C899.019,455.84 900.339,484.312 898.432,501.929C893.228,550.001 891.28,598.425 892.618,646.76Z" style="fill:rgb(158,166,173);fill-rule:nonzero;"/>
            <path d="M1011.72,724.633C1014.95,724.741 1018.05,724.017 1021.22,723.725C1022.85,692.307 1019.88,659.378 1018.59,627.81C1010.52,628.241 1002.45,628.672 994.381,629.102C1000,645.974 1004.01,663.379 1006.36,681.006C1006.73,683.8 1011.26,724.617 1011.72,724.633Z" style="fill:rgb(239,191,165);fill-rule:nonzero;"/>
            <path d="M1022.19,717.63C1024.19,717.275 1025.36,718.162 1026.69,719.376C1027.46,720.08 1027.98,721.078 1028.91,721.582C1029.85,722.087 1030.76,722.185 1031.86,722.297C1037.69,722.882 1051.1,722.639 1043.95,732.377C1037.46,741.221 1020.23,737.7 1010.27,735.298C1009.62,735.14 1008.93,735.042 1008.45,734.535C1007.97,734.028 1007.64,733.306 1007.44,732.559C1006.3,728.397 1004.75,723.201 1009.87,721.457C1012.05,720.714 1014.06,722.159 1016.37,721.357C1018.26,720.702 1020.2,717.985 1022.19,717.63Z" style="fill:rgb(20,85,102);fill-rule:nonzero;"/>
            <path d="M1036.69,646.76C1020.23,646.44 1003.77,646.121 987.313,645.803C973.998,582.417 962.272,518.698 952.151,454.726C951.366,449.766 950.602,444.607 952.031,439.794C954.734,430.688 964.486,425.493 973.822,423.749C988.33,421.038 1014.99,424.813 1022.43,439.897C1030.29,455.84 1028.97,484.312 1030.88,501.929C1036.08,550.001 1038.03,598.425 1036.69,646.76Z" style="fill:rgb(158,166,173);fill-rule:nonzero;"/>
            <path d="M994.486,299.189C1007.68,311.748 1017.57,327.882 1023.52,344.593C1034.06,374.186 1034.27,405.784 1034.36,436.747C1034.4,447.053 1034.43,457.357 1034.46,467.663C1034.49,477.802 1033.6,479.984 1022.58,478.647C1002.16,476.17 980.931,471.961 962.43,462.887C953.625,458.569 945.398,453.115 936.167,449.715C922.74,444.77 908.974,447.009 895.69,443.791C901.457,426.358 905.584,411.51 908.544,393.55C911.592,375.055 914.362,354.881 918.828,336.636C921.509,325.687 926.492,315.459 931.562,305.391C934.969,298.624 938.578,291.698 944.364,286.807C961.796,272.073 981.34,286.678 994.486,299.189Z" style="fill:rgb(58,186,186);fill-rule:nonzero;"/>
            <path d="M938.275,257.687C940.767,263.134 944.839,267.674 948.164,272.656C951.399,277.504 952.563,281.89 953.421,287.511C954.041,291.57 955.492,294.744 960.381,295.438C969.604,296.749 966.967,289.129 969.062,283.585C971.457,277.249 976.563,272.242 980.132,266.586C990.444,250.243 987.501,217.94 966.068,211.047C942.633,203.51 930.712,241.156 938.275,257.687Z" style="fill:rgb(239,191,165);fill-rule:nonzero;"/>
            <path d="M975.632,241.871C978.293,241.979 981.218,242.189 983.192,243.977C985.165,245.763 984.951,249.66 982.346,250.081C979.984,250.463 976.927,247.999 975.485,249.798C974.642,250.849 975.382,252.387 976.022,253.616C978.476,258.334 979.211,263.804 978.066,268.829C979.037,269.729 980.552,268.795 981.406,267.857C985.643,263.203 988.953,257.767 991.121,251.902C991.972,253.321 993.22,254.53 994.693,255.359C993.81,253.154 994.368,250.741 994.913,248.492C996.916,240.225 998.279,230.539 992.505,223.783C989.417,220.169 984.719,218.089 979.995,217.215C975.271,216.342 970.457,216.554 965.696,216.77C963.659,216.861 961.149,217.3 960.66,219.185C965.127,220.977 969.749,224.465 971.986,228.695C972.672,229.994 975.36,241.86 975.632,241.871Z" style="fill:rgb(26,49,81);fill-rule:nonzero;"/>
            <path d="M966.191,222.008C966.354,222.126 966.514,222.245 966.671,222.364C968.695,223.905 970.594,225.78 973.045,226.464C976.577,227.449 980.372,225.747 983.849,226.949C987.736,228.295 990.291,232.942 993.129,235.694C997.781,240.205 1003.55,243.521 1009.74,245.406C1012.91,246.369 1016.18,246.961 1019.48,247.147C1020.98,247.231 1022.98,247.516 1024.44,247.122C1026.4,246.595 1026.33,245.705 1024.25,245.036C1017.7,242.939 1015.65,233.75 1016.15,227.658C1016.54,222.85 1018.2,217.823 1016.36,213.362C1014.96,209.953 1011.95,208.193 1009.05,206.244C1005.84,204.093 1002.36,204.672 998.719,203.639C994.92,202.56 991.825,199.567 987.95,198.805C983.857,197.999 979.767,199.813 975.672,200.608C972.289,201.266 968.771,201.223 965.405,200.482C962.389,199.818 959.446,198.598 956.358,198.626C951.804,198.669 947.616,201.511 944.959,205.209C941.199,210.44 938.769,219.393 940.094,226.28C939.888,225.212 943.485,221.339 944.225,220.506C945.787,218.748 947.673,217.1 950.057,216.815C955.454,216.173 961.852,218.856 966.191,222.008Z" style="fill:rgb(26,49,81);fill-rule:nonzero;"/>
            <path d="M566.158,237.897L561.22,221.635L567.963,219.186L573.769,229.561L576.43,226.897L578.988,241.338L572.316,244.846L566.158,237.897Z" style="fill:rgb(198,122,109);fill-rule:nonzero;"/>
            <path d="M673.985,310.237L610.171,303.21L579.734,236.153L566.845,243.803L577.883,310.651L605.326,341.714L637.479,363.186L673.985,310.237Z" style="fill:rgb(58,186,186);fill-rule:nonzero;"/>
            <path d="M715.806,483.099L697.879,598.539L704.538,685.792L691.695,689.354L679.501,608.95L654.56,468.133L715.806,483.099Z" style="fill:rgb(198,122,109);fill-rule:nonzero;"/>
            <path d="M691.216,688.362L689.775,697.002L693.049,713.423L703.829,712.51L705.858,688.185L704.271,684.286L691.216,688.362Z" style="fill:rgb(26,49,81);fill-rule:nonzero;"/>
            <path d="M610.17,479.666L615.934,577.577L640.311,714.457L653.523,714.298L647.649,587.386L664.787,470.387L610.17,479.666Z" style="fill:rgb(198,122,109);fill-rule:nonzero;"/>
            <path d="M640.529,712.115L623.642,723.197L625.749,731.477L656.666,724.88L654.152,712.919L640.529,712.115Z" style="fill:rgb(26,49,81);fill-rule:nonzero;"/>
            <path d="M607.258,494.341L607.809,607.991L623.005,682.944L658.729,678.499L657.71,590.931L665.058,493.645L661.417,478.913L610.222,484.115L607.258,494.341Z" style="fill:rgb(89,89,88);fill-rule:nonzero;"/>
            <path d="M670.062,592.604L681.019,673.207L711.8,668.918L704.742,592.185L716.163,494.068L709.458,467.498L657.738,475.292L670.062,592.604Z" style="fill:rgb(58,186,186);fill-rule:nonzero;"/>
            <path d="M731.003,351.465C727.602,340.064 721.61,320.637 711.561,315.149C711.351,315.035 711.139,314.922 710.926,314.809C708.933,313.762 706.794,312.826 704.558,312.019C700.549,309.497 694.784,308.41 689.09,308.787C683.864,308.442 678.67,308.857 673.985,310.237C671.783,310.887 669.705,311.968 667.641,313.043C661.617,316.182 656.992,317.535 653.249,323.701C649.998,329.056 648.051,335.306 645.586,341.084C624.977,389.394 608.233,453.882 594.862,504.938C601.178,504.331 607.511,503.299 613.819,502.296C642.828,505.566 675.952,514.324 701.537,523.018C709.205,527.577 716.755,532.38 724.243,537.259C722.326,536.01 731.458,495.602 732.179,491.05C734.786,474.568 737.063,458.027 738.617,441.417C741.502,410.57 739.78,380.893 731.003,351.465Z" style="fill:rgb(158,166,173);fill-rule:nonzero;"/>
            <path d="M718.744,272.302C713.413,252.047 685.296,243.433 677.34,266.134C674.95,272.955 673.328,280.246 674.275,287.424C675.222,294.602 679.095,301.665 685.437,304.96L685.546,305.011C686.637,305.572 680.517,317.212 680.084,318.143C679.406,319.602 678.723,321.076 678.39,322.649C677.651,326.147 678.704,329.76 679.946,333.111C681.083,336.178 682.386,339.182 683.849,342.106C683.976,342.36 684.113,342.625 684.346,342.787C684.907,343.179 685.667,342.803 686.233,342.417C690.764,339.329 694.766,335.469 698.015,331.051C698.758,330.041 699.469,328.987 699.88,327.803C700.349,326.453 700.406,324.998 700.407,323.569C700.411,319.587 697.031,309.757 699.039,306.639C699.802,305.453 703.543,304.586 704.837,303.79C706.978,302.472 708.908,300.808 710.624,298.976C717.046,292.121 721.212,281.679 718.744,272.302Z" style="fill:rgb(198,122,109);fill-rule:nonzero;"/>
            <path d="M677.66,272.376C674.473,277.518 674.66,283.808 675.468,289.599C676.258,295.262 675.632,300.798 676.946,306.406C676.345,307.283 675,306.703 674.161,306.06C669.24,302.285 664.37,298.441 659.553,294.53C659.068,294.137 658.57,293.726 658.286,293.165C657.927,292.454 657.964,291.611 658.021,290.814C659.166,275.073 665.317,263.578 674.133,251.16C678.414,245.13 689.853,238.466 696.343,245.661C697.821,247.3 698.36,249.58 698.744,251.77C698.972,253.076 699.163,254.429 698.867,255.721C697.684,260.877 692.859,260.591 689.08,262.24C684.42,264.275 680.35,268.037 677.66,272.376Z" style="fill:rgb(26,49,81);fill-rule:nonzero;"/>
            <path d="M713.539,282.748C713.539,287.284 712.479,292.434 711.12,296.723C710.649,298.208 707.803,301.661 707.714,302.667C707.457,305.579 713.446,312.423 715.006,314.968C724.375,309.768 733.745,304.569 743.114,299.37C743.831,298.973 744.583,298.542 745,297.826C745.379,297.178 745.424,296.389 745.451,295.635C745.978,280.809 742.162,267.48 736.513,254.067C730.866,240.66 718.199,229.764 703.278,230.694C691.221,231.446 682.787,240.339 687.193,252.762C690.52,262.14 702.186,264.129 708.536,270.537C712.523,274.56 713.663,278.554 713.539,282.748Z" style="fill:rgb(26,49,81);fill-rule:nonzero;"/>
            <path d="M662.275,480.593L648.696,489.279L644.841,483.602L652.861,475.581L649.799,473.767L662.297,467.759L667.097,473.104L662.275,480.593Z" style="fill:rgb(235,206,177);fill-rule:nonzero;"/>
            <path d="M707.8,334.146C706.658,334.735 705.535,335.539 704.454,336.575C699.972,340.874 697.723,347.128 697.087,353.32C696.081,363.124 698.152,373.31 698.26,383.162C698.383,394.432 698.506,405.701 698.628,416.971L657.407,468.362L667.472,478.471L729.06,425.945C728.17,410.994 727.243,396.388 727.294,381.488C727.339,368.133 730.134,353.756 724.231,341.257C720.897,334.199 714.073,330.915 707.8,334.146Z" style="fill:rgb(58,186,186);fill-rule:nonzero;"/>
            <path d="M768.505,554.173L739.734,521.467L738.791,521.388C737.327,517.541 735.863,513.695 734.399,509.849C726.672,489.544 718.945,469.24 711.218,448.935C704.421,431.077 699.55,401.129 676.44,399.012L456.776,378.899C432.377,376.665 408.806,389.416 396.22,411.657L352.393,489.099L348.733,488.793L273.021,505.236C246.038,515.506 227.26,540.246 224.628,568.996L220.672,612.197L778.402,663.263L784.029,601.8C785.616,584.466 780.003,567.242 768.505,554.173Z" style="fill:rgb(20,85,102);fill-rule:nonzero;"/>
            <path d="M557.304,498.5L703.859,511.919L678.08,426.893C676.797,422.66 673.229,419.663 669.012,419.277L565.426,409.793L557.304,498.5Z" style="fill:rgb(209,231,245);fill-rule:nonzero;"/>
            <path d="M540.356,407.498L456.405,399.811C438.615,398.183 421.427,407.48 412.25,423.697L379.149,482.188L532.234,496.205L540.356,407.498Z" style="fill:rgb(209,231,245);fill-rule:nonzero;"/>
            <path d="M685.847,450.765C685.626,450.619 685.406,450.473 685.185,450.328L678.08,426.893C677.494,424.961 676.433,423.286 675.051,422C676.781,423.345 678.11,425.247 678.793,427.5L685.847,450.765Z" style="fill:rgb(67,119,130);fill-rule:nonzero;"/>
            <path d="M685.185,450.328C683.554,449.249 681.923,448.171 680.29,447.096C664.822,436.909 649.258,426.861 633.84,416.599L669.725,419.885C671.698,420.065 673.529,420.817 675.051,422C676.433,423.286 677.494,424.961 678.08,426.893L685.185,450.328Z" style="fill:rgb(218,236,244);fill-rule:nonzero;"/>
            <path d="M703.909,511.377C703.823,511.329 703.737,511.281 703.651,511.233L692.48,474.389C692.57,474.449 692.66,474.51 692.749,474.57L703.909,511.377Z" style="fill:rgb(67,119,130);fill-rule:nonzero;"/>
            <path d="M703.651,511.233C698.395,508.291 693.155,505.373 688.177,502.231C672.741,492.491 657.756,482.046 643.145,471.109C618.838,452.914 591.294,432.659 570.032,410.757L603.746,413.302C628.993,430.791 655.774,449.896 681.341,466.917C685.061,469.394 688.775,471.885 692.48,474.389L703.651,511.233Z" style="fill:rgb(218,236,244);fill-rule:nonzero;"/>
            <path d="M532.234,496.205L533.706,480.13L532.234,496.205ZM411.928,424.266L412.249,423.697C412.579,423.114 412.92,422.54 413.271,421.975C412.92,422.54 412.58,423.114 412.25,423.697L411.928,424.266Z" style="fill:rgb(67,119,130);fill-rule:nonzero;"/>
            <path d="M532.234,496.205L503.633,493.586C484.522,481.032 464.901,469.159 447.5,454.257C435.737,444.184 423.784,434.277 411.928,424.266L412.25,423.697C412.58,423.114 412.92,422.54 413.271,421.975C417.4,415.322 422.926,409.953 429.269,406.137C433.277,408.205 437.298,410.256 441.26,412.428C453.279,419.017 464.785,426.735 476.128,434.413C487.328,441.993 498.434,449.811 509.077,458.16C517.742,464.957 525.503,472.796 533.706,480.13L532.234,496.205Z" style="fill:rgb(218,236,244);fill-rule:nonzero;"/>
            <path d="M431.811,631.529L431.777,631.526L431.811,631.529Z" style="fill:rgb(23,44,73);fill-rule:nonzero;"/>
            <path d="M431.811,631.529L431.777,631.526L414.786,629.862C415.132,628.139 415.39,626.382 415.553,624.592C417.869,599.305 400.631,576.736 376.29,571.839L376.423,571.839C378.399,571.839 380.398,571.929 382.414,572.113C412.86,574.901 435.624,598.087 433.261,623.9C433.021,626.522 432.531,629.07 431.811,631.529Z" style="fill:rgb(18,76,92);fill-rule:nonzero;"/>
            <path d="M720.612,657.972L720.581,657.969L720.612,657.971L720.612,657.972Z" style="fill:rgb(163,192,181);fill-rule:nonzero;"/>
            <path d="M720.612,657.971L720.581,657.969L704.516,656.393C704.863,654.67 705.121,652.909 705.285,651.119C707.593,625.912 690.472,603.406 666.252,598.414C666.429,598.413 666.608,598.412 666.786,598.412C668.671,598.412 670.579,598.498 672.501,598.674C702.226,601.395 724.407,624.528 722.044,650.342C721.804,652.963 721.319,655.511 720.612,657.972" style="fill:rgb(18,76,92);fill-rule:nonzero;"/>
            <path d="M415.553,624.592C413.074,651.672 389.112,671.614 362.032,669.135C334.952,666.655 315.009,642.692 317.488,615.612C319.968,588.533 343.931,568.59 371.01,571.069C398.09,573.549 418.033,597.511 415.553,624.592Z" style="fill:rgb(26,49,81);fill-rule:nonzero;"/>
            <path d="M354.088,645.131C340.265,638.263 334.626,621.492 341.493,607.669C348.359,593.847 365.131,588.207 378.954,595.074C392.777,601.94 398.416,618.713 391.549,632.535C384.683,646.358 367.911,651.997 354.088,645.131Z" style="fill:rgb(255,255,241);fill-rule:nonzero;"/>
            <path d="M368.94,644.666C368.526,644.666 368.111,644.66 367.697,644.649C365.844,644.604 363.982,644.487 362.179,644.058C357.323,642.899 353.095,639.361 351.1,634.785C351.755,636.268 357.12,637.763 358.453,638.132C362.095,639.142 365.842,639.878 369.632,639.936C369.781,639.938 369.931,639.939 370.08,639.939C375.292,639.939 380.63,638.538 384.621,635.198C382.528,639.907 378.003,643.454 372.931,644.362C371.616,644.598 370.278,644.666 368.94,644.666Z" style="fill:rgb(229,229,216);fill-rule:nonzero;"/>
            <path d="M705.285,651.119C702.805,678.199 678.843,698.142 651.763,695.662C624.683,693.183 604.74,669.221 607.22,642.14C609.699,615.06 633.662,595.118 660.742,597.598C687.821,600.077 707.764,624.039 705.285,651.119Z" style="fill:rgb(26,49,81);fill-rule:nonzero;"/>
            <path d="M643.819,671.658C629.997,664.792 624.357,648.019 631.224,634.197C638.091,620.374 654.862,614.735 668.685,621.601C682.508,628.468 688.147,645.24 681.28,659.062C674.414,672.886 657.642,678.524 643.819,671.658Z" style="fill:rgb(255,255,241);fill-rule:nonzero;"/>
            <path d="M658.666,671.194C658.253,671.194 657.841,671.188 657.428,671.178C655.575,671.133 653.713,671.016 651.91,670.585C647.054,669.427 642.826,665.889 640.831,661.313C641.486,662.796 646.851,664.29 648.184,664.66C651.826,665.67 655.573,666.405 659.364,666.464C659.511,666.466 659.659,666.467 659.807,666.467C665.02,666.467 670.36,665.067 674.352,661.726C672.259,666.436 667.734,669.981 662.662,670.891C661.345,671.127 660.005,671.194 658.666,671.194Z" style="fill:rgb(229,229,216);fill-rule:nonzero;"/>
            <path d="M513.034,531.267C512.922,531.267 512.809,531.262 512.695,531.252L493.357,529.481C491.336,529.296 489.848,527.508 490.033,525.487L490.412,521.346C490.586,519.44 492.188,518.006 494.066,518.006C494.179,518.006 494.292,518.011 494.406,518.021L513.745,519.792C515.766,519.977 517.254,521.765 517.068,523.786L516.69,527.928C516.515,529.834 514.912,531.267 513.034,531.267Z" style="fill:rgb(18,76,92);fill-rule:nonzero;"/>
            <path d="M496.36,430.586L506.485,434.086L502.652,451.487L491.808,454.223L484.904,447.515L491.126,441.742L489.227,441.086L486.667,442.362L485.43,439.773L496.36,430.586Z" style="fill:rgb(239,191,165);fill-rule:nonzero;"/>
            <path d="M483.495,288.784C480.007,288.048 476.421,288.052 472.996,289.076C471.18,289.62 469.416,290.458 468.048,291.77C466.607,293.154 465.678,294.994 465.034,296.887C456.744,321.257 482.273,348.816 497.552,364.692C507.322,374.844 498.799,394.085 496.543,406.595C495.504,412.355 489.887,429.048 493.555,432.872C494.332,433.683 507.055,437.888 506.957,438.108C512.87,424.979 518.786,411.852 524.7,398.724C529.068,389.027 535.06,380.233 539.111,370.324C540.647,366.566 542.026,362.53 541.389,358.521C540.895,355.414 539.234,352.634 537.606,349.941C529.475,336.491 520.716,323.794 511.097,311.376C506.286,305.167 501.503,298.766 495.16,294.132C491.704,291.608 487.669,289.666 483.495,288.784Z" style="fill:rgb(235,176,68);fill-rule:nonzero;"/>
            <path d="M653.338,124.401C600.414,124.401 556.864,167.951 556.864,220.875L556.864,221.219L653.338,220.875L749.813,220.875C749.813,167.951 706.262,124.401 653.338,124.401Z" style="fill:rgb(244,244,242);fill-rule:nonzero;"/>
            <path d="M605.878,180.05L654.357,207.902L648.94,215.943L604.934,181.449C604.108,180.802 604.967,179.526 605.878,180.05Z" style="fill:rgb(235,176,68);fill-rule:nonzero;"/>
            <path d="M649.636,219.598C653.067,221.909 657.721,221.001 660.032,217.57C662.343,214.141 661.436,209.485 658.005,207.175C654.575,204.863 649.92,205.771 647.609,209.202C645.298,212.632 646.206,217.287 649.636,219.598Z" style="fill:rgb(41,41,73);fill-rule:nonzero;"/>
            <path d="M759.349,220.875L746.945,220.875C746.945,169.91 705.482,128.448 654.517,128.448C603.552,128.448 562.09,169.91 562.09,220.875L549.686,220.875C549.686,163.071 596.713,116.044 654.517,116.044C712.321,116.044 759.349,163.071 759.349,220.875Z" style="fill:rgb(26,49,81);fill-rule:nonzero;"/>
            <rect x="652.285" y="125.636" width="4.465" height="15.505" style="fill:rgb(59,69,90);fill-rule:nonzero;"/>
            <path d="M719.442,173.935L716.616,170.478L728.621,160.665L731.447,164.122L719.442,173.935Z" style="fill:rgb(26,49,81);fill-rule:nonzero;"/>
            <path d="M590.818,173.935L593.644,170.478L581.639,160.665L578.813,164.122L590.818,173.935Z" style="fill:rgb(26,49,81);fill-rule:nonzero;"/>
            <path d="M562.572,170.851C554.362,185.795 549.686,202.942 549.686,221.163L562.09,221.163C562.09,204.834 566.352,189.483 573.814,176.156C570.074,174.367 566.308,172.636 562.572,170.851Z" style="fill:rgb(235,176,68);fill-rule:nonzero;"/>
            <path d="M954.539,395.339L883.231,356.794L933.371,345.676C938.717,344.491 944.012,347.864 945.198,353.21L954.539,395.339ZM941.517,325.098L827.193,350.447C827.316,350.915 827.438,351.384 827.544,351.86C831.969,371.818 819.377,391.586 799.418,396.012L799.236,396.047L833.13,548.905C834.83,556.573 842.424,561.411 850.092,559.711L986.816,529.394C994.484,527.694 999.322,520.1 997.621,512.432L958.48,335.903C956.779,328.235 949.185,323.397 941.517,325.098Z" style="fill:rgb(20,85,102);fill-rule:nonzero;"/>
            <path d="M811.683,353.886L745.855,328.416L739.742,338.279L794.904,376.824L799.055,392.384C817.878,388.21 827.343,370.501 823.837,351.69L811.683,353.886Z" style="fill:rgb(186,188,190);fill-rule:nonzero;"/>
            <path d="M713.971,418.646C716.919,439.074 732.589,450.972 753.085,444.633C764.877,440.985 772.325,428.821 770.471,416.447C768.041,400.227 755.433,387.795 746.186,375.128C741.37,368.53 737.493,360.551 737.717,352.557C737.744,351.599 736.54,351.163 735.919,351.893C733.993,354.157 731.45,356.54 730.331,358.171C727.733,361.957 725.403,365.929 723.358,370.039C719.264,378.264 716.303,387.055 714.596,396.081C713.337,402.733 712.848,410.859 713.971,418.646Z" style="fill:rgb(235,176,68);fill-rule:nonzero;"/>
            <path d="M734.677,432.921C721.768,429.5 721.885,411.847 724.629,401.538C725.299,399.021 721.442,397.775 720.77,400.299C717.442,412.802 718.176,432.735 733.438,436.779C735.955,437.446 737.202,433.59 734.677,432.921Z" style="fill:white;fill-rule:nonzero;"/>
            <path d="M740.833,436.435L740.394,436.531C739.359,436.761 738.569,437.891 738.854,438.948C739.14,440.01 740.162,440.733 741.271,440.488L741.711,440.391C742.745,440.161 743.535,439.031 743.25,437.974C742.965,436.912 741.943,436.188 740.833,436.435Z" style="fill:white;fill-rule:nonzero;"/>
            <path d="M234.482,211.477C234.299,211.729 234.112,211.991 234.013,212.276C233.082,214.927 234.184,216.867 234.016,219.662C233.941,220.909 231.143,222.488 233.244,224.035C234.019,224.606 236.117,225.738 237.781,226.939C240.208,228.691 242.225,232.379 243.286,235.603C247.456,248.268 248.063,261.716 248.245,275.038C248.256,275.798 248.255,276.59 247.914,277.268C247.304,278.484 245.84,278.947 244.532,279.32C238.466,281.048 232.562,283.341 226.92,286.159C221.886,288.674 216.945,291.707 213.486,296.146C210.028,300.586 208.274,306.682 210.171,311.979C211.592,315.946 215.037,319.127 219.105,320.227C229.193,322.956 238.581,310.916 245.32,305.015C251.696,299.433 257.681,293.403 263.214,286.983C263.897,286.191 264.59,285.364 264.907,284.366C265.244,283.304 265.121,282.156 264.991,281.049C263.319,266.787 260.397,252.753 257.176,238.705C256.29,234.845 253.489,231.94 252.702,228.363C252.201,226.081 253.449,223.93 253.452,221.671C253.455,219.437 252.89,216.502 252.069,214.426C250.451,210.331 246.053,209.174 242.31,207.785C241.378,207.439 240.749,207.203 239.826,207.324C238.323,207.522 237.281,208.561 236.211,209.552C235.577,210.14 234.986,210.78 234.482,211.477Z" style="fill:rgb(198,122,109);fill-rule:nonzero;"/>
            <path d="M241.277,305.261C237.916,297.508 234.554,289.754 231.193,282.001C231.408,282.499 195.079,295.102 192.942,295.927C184.786,299.073 176.359,302.394 170.262,308.659C157.245,322.037 167.008,344.587 186.206,342.509C207.046,340.252 228.778,329.849 243.978,315.489C244.309,315.177 244.65,314.843 244.782,314.407C244.963,313.81 244.71,313.178 244.462,312.605C243.4,310.157 242.339,307.709 241.277,305.261Z" style="fill:rgb(198,146,51);fill-rule:nonzero;"/>
            <path d="M50.18,517.316C49.62,520.247 49.223,523.193 48.909,525.901C48.371,530.548 48.977,535.88 47.683,540.389C47.17,542.17 46.494,543.896 46.173,545.738C45.851,547.579 45.928,549.618 46.824,551.154C47.925,553.039 49.962,553.744 51.855,554.221C53.608,554.661 55.422,555.016 57.19,554.625C60.755,553.836 63.465,550.089 64.65,546.011C66.068,541.131 65.541,536.276 65.49,531.298C65.691,523.456 63.763,516.716 64.291,508.821C64.38,507.49 64.444,506.056 63.726,504.931C62.968,503.744 61.478,503.192 60.07,503.196C57.264,503.203 54.537,503.917 53.342,506.562C51.901,509.753 50.904,513.521 50.18,517.316Z" style="fill:rgb(20,85,102);fill-rule:nonzero;"/>
            <path d="M57.664,511.292C56.11,512.441 54.985,514.065 53.889,515.659C53.149,516.734 52.392,518.149 53.083,519.258C53.346,519.68 53.778,519.962 54.197,520.23C55.948,521.357 57.7,522.482 59.452,523.607C59.808,523.837 60.202,524.075 60.623,524.031C60.971,523.992 61.267,523.768 61.539,523.548C63.294,522.138 64.967,520.627 66.549,519.026C73.689,511.794 64.026,506.588 57.664,511.292Z" style="fill:rgb(198,122,109);fill-rule:nonzero;"/>
            <path d="M182.068,448.486C181.659,446.753 180.216,445.491 178.702,444.406C163.121,433.243 146.018,425.469 127.418,420.834C125.851,420.443 115.015,451.388 113.971,454.391C109.922,466.046 106.425,477.887 103.383,489.843C100.051,502.943 96.607,516.016 93.097,529.07C87.143,522.93 80.736,517.229 73.935,512.044C72.764,511.15 71.499,510.239 70.033,510.11C68.25,509.952 66.595,510.979 65.148,512.032C62.629,513.867 60.263,515.911 58.083,518.139C57.354,518.883 56.615,519.707 56.422,520.732C56.229,521.751 56.611,522.782 56.988,523.75C63.453,540.344 73.682,567.026 82.029,582.783C86.067,590.403 94.109,593.183 102.354,592.749C104.466,592.638 105.937,592.086 107.789,591.485C109.975,590.775 112.333,590.845 114.541,590.144C115.988,589.685 117.141,588.601 118.185,587.498C127.248,577.92 133.602,564.32 139.223,552.515C145.326,539.698 150.37,526.403 154.958,512.979C155.296,511.987 155.64,511.005 155.99,510.029C163.178,489.961 172.633,472.773 181.201,453.113C181.848,451.629 182.477,450.22 182.068,448.486Z" style="fill:rgb(58,186,186);fill-rule:nonzero;"/>
            <path d="M151.224,678.852C154.068,680.033 157.078,679.916 160.007,680.557C163.258,670.548 165.424,660.627 166.62,650.06C160.579,653.438 157.847,649.353 154.888,658.554C153.93,661.531 153.325,674.538 151.224,678.852Z" style="fill:rgb(198,122,109);fill-rule:nonzero;"/>
            <path d="M163.092,677.598C162.953,683.302 167.286,689.558 169.639,694.751C169.916,695.361 170.198,695.997 170.193,696.667C170.185,697.663 169.554,698.533 168.95,699.325C168.112,700.426 167.202,701.58 165.901,702.052C164.623,702.515 163.208,702.23 161.888,701.905C159.68,701.36 157.496,700.716 155.347,699.972C154.812,699.787 154.265,699.588 153.835,699.221C153.324,698.784 153.026,698.156 152.743,697.548C151.29,694.425 150.043,692.203 150.213,688.768C150.389,685.222 150.931,681.557 150.372,678.023C150.095,676.31 149.726,674.117 151.211,673.218C152.359,672.522 154.402,673.573 155.627,673.806C157.788,674.215 159.797,674.132 161.767,675.322C162.168,675.565 162.558,675.854 162.798,676.257C163.043,676.666 163.104,677.122 163.092,677.598Z" style="fill:rgb(20,85,102);fill-rule:nonzero;"/>
            <path d="M152.928,496.303C153.549,521.662 155.612,546.961 153.043,572.414C149.87,603.856 151.064,635.976 146.707,667.088C150.266,668.427 153.927,669.5 157.647,670.293C161.911,671.202 168.795,672.307 171.796,668.332C173.33,666.301 173.793,662.307 174.485,659.891C176.703,652.15 178.743,644.359 180.766,636.567C186.49,614.52 192.801,592.38 196.049,569.832C199.467,546.111 203.086,522.375 207.002,498.828C209.026,486.658 210.588,474.411 211.568,462.111C211.821,458.942 214.347,426.253 212.755,425.98C193.861,422.742 175.077,422.98 156.321,426.935C154.498,427.318 152.67,427.893 151.598,429.315C150.526,430.738 150.535,432.281 150.53,433.901C150.485,449.35 152.288,464.464 152.57,479.963C152.668,485.355 152.792,490.756 152.928,496.303Z" style="fill:rgb(58,186,186);fill-rule:nonzero;"/>
            <path d="M147.472,292.789C147.161,292.886 146.852,292.987 146.544,293.095C141.403,294.897 136.984,298.263 132.661,301.577C126.167,306.554 122.975,308.727 120.324,316.275C117.85,323.315 116.224,330.775 114.633,338.055C106.468,375.426 104.12,412.789 97.981,450.495C96.31,460.759 94.914,472.839 102.35,480.107C116.135,469.935 133.139,469.762 149.532,470.166C161.043,470.45 172.393,467.01 183.899,468.589C194.895,470.099 204.598,467.589 215.77,468.603C218.464,468.848 221.903,468.906 223.03,466.447C219.454,454.739 219.84,442.256 219.275,430.027C217.815,398.394 208.129,367.828 204.709,336.359C203.546,325.663 203.233,307.95 195.184,299.67C186.437,290.673 165.979,289.971 154.406,291.392C152.063,291.679 149.725,292.091 147.472,292.789Z" style="fill:rgb(235,176,68);fill-rule:nonzero;"/>
            <path d="M156.047,292.477C156.227,292.851 156.472,293.211 156.803,293.555C158.109,294.91 159.946,295.707 161.781,296.018C164.201,296.428 166.68,296.088 169.101,295.689C172.372,295.151 172.306,293.242 172.853,290.3C173.152,288.691 173.355,287.068 173.519,285.441C173.608,284.55 173.344,281.341 173.93,280.729C174.327,280.314 175.897,280.498 176.596,280.155C177.703,279.613 178.643,278.585 179.325,277.581C180.426,275.962 181.057,274.077 181.676,272.22C182.752,268.987 183.827,265.755 184.903,262.522C186.002,259.221 187.108,255.89 187.522,252.435C188.147,247.226 187.491,239.832 183.647,235.914C180.141,232.339 174.927,230.985 170.132,230.248C163.783,229.271 157.151,230.269 151.563,233.509C149.307,234.817 147.155,236.534 145.781,238.935C143.663,242.636 143.697,247.325 143.803,251.711C143.9,255.759 143.997,259.808 144.095,263.855C144.206,268.513 144.649,273.886 148.069,276.497C149.884,277.883 152.296,278.231 153.836,279.988C155.764,282.19 155.553,285.413 155.567,288.143C155.574,289.702 155.42,291.175 156.047,292.477Z" style="fill:rgb(198,122,109);fill-rule:nonzero;"/>
            <path d="M177.546,240.725C177.756,241.109 177.929,241.508 178.06,241.92C178.748,244.083 178.184,246.489 178.855,248.658C179.917,252.096 183.842,254.245 184.35,257.807C184.766,260.72 182.714,263.427 182.472,266.358C182.207,269.562 184.184,272.651 183.784,275.81C183.437,278.554 181.593,282.375 179.895,284.538C180.421,283.868 185.019,284.228 186.233,283.529C188.092,282.458 188.318,281.76 188.912,279.866C189.501,277.986 189.13,276.109 190.022,274.19C191.116,271.837 193.285,270.144 194.094,267.625C195.197,264.187 193.448,260.487 193.684,256.884C194.041,251.432 198.89,246.409 197.311,241.179C196.384,238.109 193.479,236.089 191.887,233.306C190.678,231.192 190.275,228.729 189.458,226.436C188.641,224.143 187.194,221.832 184.878,221.084C183.591,220.668 182.192,220.789 180.869,220.508C178.582,220.021 176.714,218.388 174.519,217.582C171.38,216.43 165.711,219.489 163.794,222.126C161.891,224.743 162.76,227.031 164.575,229.435C167.598,233.438 175.082,236.198 177.546,240.725Z" style="fill:rgb(26,49,81);fill-rule:nonzero;"/>
            <path d="M135.31,223.512C133.377,224.855 131.007,225.801 129.233,227.384C125.773,230.47 125.001,235.526 124.761,240.156C124.547,244.278 122.649,247.898 122.985,252.209C123.212,255.104 124.364,258.056 126.671,259.82C129.542,262.018 134.128,262.483 135.347,265.889C136.671,269.587 132.76,274.102 134.981,277.342C136.207,279.129 138.69,279.45 140.477,280.676C142.472,282.043 143.453,284.42 144.639,286.527C145.824,288.635 147.631,290.762 150.046,290.875C150.238,287.202 150.421,284.292 148.937,280.891C148.072,278.909 145.472,275.227 147.595,273.159C148.944,271.431 152.038,270.935 152.174,268.746C152.237,267.718 151.542,266.824 150.997,265.949C148.889,262.565 148.779,258.126 150.361,254.466C151.942,250.806 155.081,247.931 158.713,246.285C162.968,244.356 162.317,243.313 163.642,239.319C164.861,235.644 166.985,234.829 170.354,233.564C173.379,232.429 174.36,231.697 175.536,228.924C176.397,226.895 177.456,224.464 176.341,222.146C175.456,220.304 173.812,218.96 172.218,217.68C168.89,215.005 165.145,212.187 160.88,212.384C158.511,212.494 156.258,213.548 153.888,213.622C152.307,213.671 150.746,213.281 149.167,213.188C146.475,213.029 143.612,213.775 141.39,215.324C139.148,216.886 139.167,218.581 137.886,220.846C137.258,221.956 136.347,222.791 135.31,223.512Z" style="fill:rgb(26,49,81);fill-rule:nonzero;"/>
            <path d="M145.229,208.643C145.709,206.092 145.528,202.748 143.105,201.821C141.777,201.313 140.262,201.793 138.876,201.475C135.923,200.795 135.005,197.175 133.515,194.536C133.291,194.142 133.024,193.74 132.615,193.545C132.029,193.266 131.344,193.483 130.698,193.545C127.735,193.83 125.565,190.857 122.81,189.729C119.401,188.334 115.014,190.376 113.886,193.883C113.423,195.324 113.457,196.887 113.02,198.336C111.248,204.208 102.523,206.503 102.148,212.625C101.894,216.762 105.845,220.832 104.172,224.624C103.102,227.049 99.906,228.64 100.2,231.273C100.389,232.968 102.158,234.164 103.862,234.184C105.567,234.203 107.157,233.309 108.47,232.22C110.553,230.492 112.147,228.248 114.137,226.413C116.126,224.578 118.755,223.116 121.431,223.52C124.023,223.911 126.324,225.995 128.92,225.628C130.996,225.335 132.577,223.53 134.621,223.063C136.534,222.624 138.49,223.421 140.444,223.589C142.399,223.757 144.829,222.8 144.931,220.841C144.956,220.366 144.836,219.872 144.996,219.425C145.446,218.171 147.603,218.299 148.046,217.043C147.064,215.441 145.609,215.969 144.929,213.894C144.402,212.287 144.928,210.244 145.229,208.643Z" style="fill:rgb(26,49,81);fill-rule:nonzero;"/>
            <path d="M72.651,223.89L170.933,417.634L230.45,363.449L353.905,494.681L259.906,284.1L184.995,336.539L72.651,223.89Z" style="fill:rgb(20,85,102);fill-rule:nonzero;"/>
            <path d="M217.881,376.321C217.583,376.213 217.274,376.103 216.968,376.086C214.113,375.917 212.524,377.537 209.742,378.154C208.501,378.43 206.174,376.134 205.248,378.621C204.906,379.539 204.385,381.908 203.675,383.873C202.639,386.737 199.595,389.741 196.738,391.681C191.983,394.909 159.256,412.308 156.725,406.257C153.684,398.985 151.013,391.56 148.724,384.018C148.556,383.464 148.355,382.862 147.867,382.549C147.458,382.287 146.94,382.29 146.455,382.302C141.232,382.428 119.111,379.026 122.653,388.972C126.77,400.532 131.591,411.842 137.081,422.817C138.184,425.022 139.363,427.276 141.258,428.852C146.271,433.023 152.036,428.149 156.872,426.162C161.408,424.298 165.902,422.369 170.339,420.271C179.591,415.897 188.625,411.076 197.586,406.138C201.115,404.192 203.173,400.639 206.453,398.869C208.546,397.74 211,398.36 213.211,397.731C215.398,397.11 218.111,395.736 219.913,394.352C223.466,391.625 223.369,386.998 223.681,382.948C223.759,381.939 223.815,381.258 223.437,380.389C222.823,378.975 221.517,378.245 220.247,377.475C219.495,377.018 218.703,376.62 217.881,376.321Z" style="fill:rgb(198,122,109);fill-rule:nonzero;"/>
            <path d="M113.731,381.445C113.687,385.405 114.267,390.253 117.916,391.791C119.356,392.397 120.981,392.312 122.541,392.217C131.685,391.657 140.989,391.064 149.565,387.844C151.06,387.283 152.724,386.407 153,384.834C153.156,383.945 152.811,383.053 152.473,382.215C147.754,370.531 143.034,358.848 138.314,347.163C134.643,338.075 123.819,323.75 117.46,339.472C112.596,351.499 113.873,368.649 113.731,381.445Z" style="fill:rgb(229,229,229);fill-rule:nonzero;"/>
            <path d="M929.377,426.459C929.485,426.154 929.601,425.841 929.786,425.589C931.509,423.238 933.815,423.045 936.109,421.262C937.133,420.466 936.844,417.146 939.399,418.037C940.342,418.365 942.541,419.498 944.545,420.218C947.467,421.268 951.806,420.832 955.186,419.851C959.73,418.531 964.508,417.03 968.77,415.063C973.23,413.005 977.581,410.711 981.828,408.245C985.367,406.19 990.983,403.834 993.659,400.707C998.183,395.418 992.943,382.526 992.348,375.922C991.726,369.038 992.329,348.761 1001.62,348.186C1016.84,347.248 1017.08,361.712 1017.76,373.359C1018.19,380.628 1018.16,388.034 1017.5,395.291C1016.59,405.453 1010,411.271 1001.3,416.082C992.078,421.18 982.644,426.179 972.507,429.213C967.58,430.687 962.731,431.128 957.703,431.94C952.735,432.743 953.37,434.909 949.201,436.727C946.874,437.742 944.695,439.216 942.211,439.782C937.758,440.798 934.189,437.712 930.806,435.323C929.964,434.727 929.393,434.328 928.956,433.467C928.245,432.064 928.522,430.564 928.743,429.066C928.874,428.18 929.077,427.299 929.377,426.459Z" style="fill:rgb(239,191,165);fill-rule:nonzero;"/>
            <path d="M1017.48,377.294C1008.87,378.962 1000.27,380.631 991.661,382.299C992.213,382.191 981.702,343.71 981.154,341.397C979.065,332.573 976.967,323.413 978.756,314.522C982.574,295.54 991.725,290.868 1003.25,310.814C1014.14,329.642 1031.2,352.182 1027.82,373.609C1027.74,374.075 1027.66,374.562 1027.36,374.931C1026.96,375.435 1026.27,375.591 1025.63,375.714C1022.91,376.24 1020.2,376.768 1017.48,377.294Z" style="fill:rgb(56,175,172);fill-rule:nonzero;"/>
        </g>
    </g>
</svg>
